<?xml version="1.0" standalone="no"?>
<!DOCTYPE svg PUBLIC "-//W3C//DTD SVG 20010904//EN"
 "http://www.w3.org/TR/2001/REC-SVG-20010904/DTD/svg10.dtd">
<svg version="1.0" xmlns="http://www.w3.org/2000/svg"
 width="512.000000pt" height="512.000000pt" viewBox="0 0 512.000000 512.000000"
 preserveAspectRatio="xMidYMid meet">

<g transform="translate(0.000000,512.000000) scale(0.100000,-0.100000)"
fill="#000000" stroke="none">
<path d="M3210 5050 c-20 -5 -454 -133 -965 -285 -599 -178 -959 -290 -1011
-314 -176 -83 -355 -235 -455 -386 -44 -66 -687 -1324 -721 -1411 -44 -111
-41 -276 7 -395 12 -31 289 -472 616 -980 529 -824 601 -932 669 -999 112
-111 234 -176 386 -206 133 -25 242 -15 419 39 1022 314 1811 565 1860 590 33
18 89 61 125 97 62 62 87 106 489 843 292 536 430 798 443 845 37 125 26 287
-27 407 -12 28 -307 480 -657 1005 -534 804 -644 964 -697 1013 -104 95 -205
136 -351 142 -52 3 -111 0 -130 -5z m30 -124 c0 -3 -25 -39 -55 -81 -30 -43
-55 -84 -55 -92 0 -18 45 -63 62 -63 26 0 54 29 128 134 85 120 83 119 186 70
109 -51 114 -59 784 -1064 551 -827 639 -965 659 -1028 13 -40 22 -74 20 -76
-2 -1 -137 -39 -299 -84 -162 -44 -589 -162 -949 -261 -360 -100 -658 -181
-662 -181 -5 0 -34 35 -66 78 -80 108 -103 132 -130 132 -28 0 -63 -33 -63
-59 0 -11 27 -56 61 -101 33 -45 57 -86 52 -90 -6 -5 -102 -33 -304 -87 -12
-3 -109 133 -374 525 -197 292 -358 534 -357 538 0 4 58 30 129 57 l128 48 17
-23 c10 -13 46 -61 80 -108 56 -75 67 -85 98 -88 39 -4 60 16 60 56 0 15 -32
68 -80 133 l-79 108 71 98 c76 104 88 143 53 169 -20 15 -54 18 -71 6 -6 -4
-47 -56 -92 -117 l-80 -110 -152 -58 c-84 -32 -156 -57 -161 -55 -5 2 -159
226 -344 498 l-335 495 23 17 c78 61 213 112 637 238 239 71 660 196 935 279
485 145 525 156 525 147z m-1481 -1846 c402 -595 731 -1084 731 -1087 0 -18
-905 -1733 -914 -1733 -21 0 -143 97 -178 141 -54 67 -1188 1836 -1216 1898
-14 30 -26 80 -29 115 l-5 61 119 44 c65 24 128 54 141 65 30 26 25 63 -10 89
l-27 20 -93 -35 c-51 -20 -95 -34 -96 -33 -7 6 641 1280 686 1350 46 72 139
185 153 185 4 0 336 -486 738 -1080z m3196 -557 c-25 -86 -837 -1570 -888
-1622 l-40 -41 -15 22 c-53 80 -96 97 -131 52 -27 -35 -27 -40 9 -94 21 -32
26 -46 17 -51 -10 -6 -1609 -504 -1847 -576 -68 -21 -106 -26 -190 -25 -104 0
-167 11 -163 28 1 5 204 396 452 869 l450 859 223 62 c235 65 645 178 1318
364 223 62 497 138 610 169 113 32 206 54 208 49 2 -4 -4 -34 -13 -65z"/>
<path d="M2973 4548 c-44 -49 -193 -263 -193 -278 0 -29 30 -60 58 -60 15 0
32 4 38 8 22 13 204 274 204 291 0 56 -69 80 -107 39z"/>
<path d="M2643 4083 c-22 -8 -213 -280 -213 -302 0 -24 33 -61 54 -61 33 0 51
18 135 134 126 173 125 173 86 211 -24 24 -38 28 -62 18z"/>
<path d="M2482 2888 c-25 -12 -37 -46 -28 -75 4 -10 50 -76 104 -148 108 -145
131 -160 171 -109 11 15 21 32 21 39 0 17 -163 242 -201 278 -32 30 -34 30
-67 15z"/>
<path d="M1440 3109 c-14 -5 -79 -31 -144 -56 -125 -49 -156 -69 -156 -103 0
-26 35 -60 62 -60 36 0 312 110 331 132 22 27 22 53 -3 78 -22 22 -50 24 -90
9z"/>
<path d="M750 2842 c-115 -46 -147 -63 -159 -84 -14 -25 -14 -29 5 -55 12 -15
30 -29 41 -31 10 -2 90 25 177 59 175 68 195 85 165 137 -24 44 -65 39 -229
-26z"/>
<path d="M3180 1912 c-40 -32 -29 -62 70 -196 109 -150 115 -156 145 -156 24
0 65 41 65 65 0 7 -39 66 -86 131 -133 183 -147 194 -194 156z"/>
<path d="M3527 1422 c-10 -10 -17 -28 -17 -41 0 -20 178 -276 204 -293 36 -25
96 6 96 49 0 20 -136 219 -188 276 -30 32 -71 36 -95 9z"/>
</g>
</svg>
